PathFileType	4	(x/y/z)	S04_PSF_T13.trc
DataRate	CameraRate	NumFrames	NumMarkers	Units	OrigDataRate	OrigDataStartFrame	OrigNumFrames
240	240	8	51	mm	240	379	432
Frame#	Time	Sternum			R.Acromium			L.Acromium			Top.Head			R.ASIS			L.ASIS			R.PSIS			L.PSIS			R.Great.Tro			L.Great.Tro			R.Iliac.Crest			L.Iliac.Crest			V.Sacral			R.Thigh.Upper.Post			R.Thigh.Lower.Ant			R.Thigh.Lower.Post			R.Thigh.Upper.Ant			R.Knee.Lat			R.Knee.Med			R.Shank.Upper.Post			R.Shank.Lower.Ant			R.Shank.Lower.Post			R.Shank.Upper.Ant			R.Ankle.Lat			R.Ankle.Med			R.Heel.Upper			R.Heel.Med			R.Heel.Lat			R.Toe.Lat			R.Toe.Med			R.Toe.Tip			L.Thigh.Upper.Post			L.Thigh.Lower.Ant			L.Thigh.Lower.Post			L.Thigh.Upper.Ant			L.Knee.Lat			L.Knee.Med			L.Shank.Upper.Post			L.Shank.Lower.Ant			L.Shank.Lower.Post			L.Shank.Upper.Ant			L.Ankle.Lat			L.Ankle.Med			L.Heel.Upper			L.Heel.Med			L.Heel.Lat			L.Toe.Lat			L.Toe.Med			L.Toe.Tip			Cervical.Spine			Back			
		X1	Y1	Z1	X2	Y2	Z2	X3	Y3	Z3	X4	Y4	Z4	X5	Y5	Z5	X6	Y6	Z6	X7	Y7	Z7	X8	Y8	Z8	X9	Y9	Z9	X10	Y10	Z10	X11	Y11	Z11	X12	Y12	Z12	X13	Y13	Z13	X14	Y14	Z14	X15	Y15	Z15	X16	Y16	Z16	X17	Y17	Z17	X18	Y18	Z18	X19	Y19	Z19	X20	Y20	Z20	X21	Y21	Z21	X22	Y22	Z22	X23	Y23	Z23	X24	Y24	Z24	X25	Y25	Z25	X26	Y26	Z26	X27	Y27	Z27	X28	Y28	Z28	X29	Y29	Z29	X30	Y30	Z30	X31	Y31	Z31	X32	Y32	Z32	X33	Y33	Z33	X34	Y34	Z34	X35	Y35	Z35	X36	Y36	Z36	X37	Y37	Z37	X38	Y38	Z38	X39	Y39	Z39	X40	Y40	Z40	X41	Y41	Z41	X42	Y42	Z42	X43	Y43	Z43	X44	Y44	Z44	X45	Y45	Z45	X46	Y46	Z46	X47	Y47	Z47	X48	Y48	Z48	X49	Y49	Z49	X50	Y50	Z50	X51	Y51	Z51	

379	1.575	498.23	1271.1	254.5	367.34	1503.2	422.29	376.05	1484.9	72.829	418.96	1825.5	235.88	468.41	989.8	384.58	459.67	1003.2	135.76	255	1026.2	296.19	260.85	1033.4	215.24	387.52	912.48	455.45	334.03	925.79	77.534	381.54	1084.5	431.48	365.05	1086.4	94.456	235.83	988.73	253.56	474.19	665.16	451.12	573.8	616.53	415.73	507.7	581.52	436.19	541.27	721.13	435.41	554.44	528.92	426.54	540.91	515.06	298.11	538.06	296.29	426.06	628.26	240	396.81	558.7	229.57	413.92	603.99	306.37	417.17	606.42	118.68	401.11	634.09	140.87	314.75	561.57	70.554	337.15	583.44	46.709	308.05	571.96	39.048	370.67	729.58	77.264	438.42	775.28	98.387	328.84	822.89	133.28	383.16	275.93	705.3	97.626	335.28	594.78	108.6	266.06	615.97	112.89	339.28	683.47	90.284	281.21	512.07	122.37	284.49	505.18	245.56	164.82	347.55	131.21	221.34	252.14	134.03	159.59	270.36	140.85	226.49	328.07	123.59	175.56	105.36	162.39	181.54	116.12	253.59	99.117	76.314	206.37	104.5	50.306	239.39	102.85	49.601	177.77	286.44	42.45	139.38	317.09	44.455	256.55	374.84	52.91	207.15	323.43	1547.7	249.16	240.15	1291.1	229.65
380	1.5792	503.71	1270.1	254.79	372.82	1502.2	422.62	381.66	1484	73.166	424.43	1824.5	236.21	473.94	988.78	384.65	464.85	1002.2	135.86	260.48	1025.3	296.54	266.23	1032.6	215.58	393.07	911.48	455.68	338.93	925.08	77.732	387.08	1083.5	431.7	370.33	1085.5	94.628	241.24	987.85	253.9	478.87	663.87	451.34	578.53	615.22	416.12	512.35	580.24	436.38	546.01	719.82	435.8	559.55	528	426.78	546.07	513.88	298.34	548.06	295.12	426.16	639.49	240.86	396.95	570.2	228.86	413.94	613.75	306.68	417.33	620.41	119.02	401.1	647.65	141.85	314.8	576.74	69.875	337.12	599.13	46.541	308.01	587.75	38.628	370.64	744.43	80.297	438.52	789.8	102.44	329.02	836.54	138.4	383.36	279.47	705.18	97.83	338.21	594.31	108.78	269.13	615.88	113.05	342.72	682.99	90.484	283.58	511.87	122.45	286.91	504.92	245.64	166.32	347.97	131.29	222.33	252.23	134.06	160.68	270.79	140.93	227.86	328.14	123.62	175.78	105.58	162.5	181.8	116.38	253.71	99.223	76.553	206.51	104.59	50.513	239.51	102.93	49.855	177.89	286.47	42.437	139.42	317.19	44.348	256.57	374.95	52.67	207.15	329	1546.8	249.47	245.65	1290.2	229.87
381	1.5833	509.21	1269.1	255.09	378.3	1501.2	422.97	387.29	1483.1	73.516	429.91	1823.6	236.56	479.5	987.75	384.72	470.05	1001.2	135.97	265.98	1024.4	296.91	271.62	1031.7	215.94	398.65	910.47	455.9	343.84	924.37	77.936	392.64	1082.4	431.92	375.63	1084.6	94.812	246.66	986.95	254.25	483.58	662.58	451.57	583.28	613.9	416.5	517.03	578.94	436.58	550.78	718.5	436.2	564.66	527.07	427.03	551.23	512.69	298.56	557.92	294.03	426.24	650.5	241.74	397.04	581.49	228.23	413.94	623.35	307.01	417.46	634.09	119.46	401.03	660.88	142.91	314.8	591.59	69.32	337.03	614.48	46.497	307.92	603.19	38.34	370.55	758.9	83.386	438.59	803.93	106.51	329.16	849.79	143.51	383.53	283.07	705.04	98.047	341.22	593.84	108.96	272.27	615.78	113.22	346.22	682.5	90.679	286.04	511.66	122.53	289.41	504.65	245.73	167.88	348.39	131.37	223.37	252.34	134.09	161.83	271.23	141.02	229.29	328.22	123.66	176	105.82	162.61	182.06	116.67	253.85	99.34	76.824	206.65	104.69	50.754	239.63	103	50.138	178.01	286.51	42.421	139.46	317.29	44.242	256.57	375.05	52.42	207.15	334.59	1545.8	249.8	251.16	1289.3	230.1
382	1.5875	514.73	1268	255.41	383.78	1500.2	423.34	392.94	1482.1	73.881	435.39	1822.6	236.91	485.07	986.72	384.79	475.26	1000.1	136.08	271.5	1023.5	297.29	277.02	1030.8	216.3	404.27	909.44	456.13	348.77	923.64	78.147	398.22	1081.4	432.16	380.95	1083.7	95.007	252.1	986.03	254.62	488.35	661.28	451.81	588.07	612.58	416.87	521.75	577.64	436.78	555.61	717.18	436.58	569.79	526.12	427.28	556.41	511.51	298.76	567.63	293.01	426.3	661.29	242.63	397.09	592.55	227.68	413.91	632.8	307.34	417.55	647.43	119.97	400.91	673.77	144.01	314.76	606.08	68.87	336.9	629.45	46.554	307.78	618.26	38.165	370.42	772.94	86.501	438.63	817.64	110.57	329.27	862.61	148.57	383.66	286.73	704.88	98.278	344.3	593.35	109.13	275.48	615.66	113.4	349.78	681.99	90.871	288.58	511.43	122.62	292.02	504.35	245.83	169.51	348.83	131.46	224.46	252.44	134.13	163.04	271.68	141.1	230.79	328.29	123.7	176.25	106.08	162.72	182.34	116.98	253.99	99.47	77.133	206.78	104.79	51.035	239.75	103.09	50.456	178.13	286.56	42.401	139.51	317.41	44.138	256.58	375.17	52.161	207.15	340.18	1544.9	250.15	256.69	1288.4	230.33
383	1.5917	520.26	1267	255.74	389.28	1499.1	423.73	398.61	1481.2	74.26	440.86	1821.6	237.28	490.67	985.69	384.86	480.5	999.12	136.2	277.03	1022.5	297.68	282.44	1029.9	216.69	409.92	908.41	456.37	353.72	922.9	78.365	403.82	1080.4	432.4	386.28	1082.8	95.215	257.56	985.08	255	493.18	660	452.06	592.92	611.27	417.21	526.54	576.35	436.98	560.49	715.87	436.96	574.96	525.18	427.52	561.6	510.33	298.96	577.18	292.07	426.34	671.82	243.52	397.1	603.39	227.19	413.84	642.07	307.67	417.61	660.41	120.53	400.75	686.3	145.13	314.67	620.18	68.506	336.73	644.01	46.691	307.6	632.92	38.082	370.25	786.55	89.61	438.61	830.9	114.59	329.31	875	153.54	383.74	290.45	704.69	98.525	347.45	592.85	109.3	278.77	615.53	113.58	353.4	681.48	91.059	291.23	511.2	122.72	294.73	504.05	245.93	171.21	349.28	131.55	225.6	252.55	134.18	164.3	272.15	141.19	232.36	328.36	123.76	176.52	106.36	162.83	182.63	117.32	254.13	99.613	77.483	206.91	104.91	51.36	239.87	103.18	50.813	178.26	286.6	42.378	139.56	317.52	44.037	256.59	375.29	51.892	207.15	345.78	1543.9	250.52	262.23	1287.4	230.58
384	1.5958	525.81	1265.9	256.09	394.78	1498	424.13	404.29	1480.3	74.653	446.34	1820.6	237.66	496.29	984.65	384.94	485.75	998.1	136.31	282.58	1021.6	298.1	287.88	1029	217.09	415.61	907.37	456.61	358.68	922.15	78.591	409.44	1079.3	432.65	391.62	1081.9	95.437	263.04	984.12	255.4	498.08	658.73	452.31	597.83	609.97	417.54	531.41	575.08	437.19	565.44	714.58	437.32	580.19	524.24	427.75	566.82	509.17	299.13	586.56	291.18	426.36	682.1	244.38	397.07	613.97	226.76	413.75	651.17	307.99	417.62	673	121.13	400.54	698.44	146.26	314.53	633.86	68.209	336.51	658.13	46.884	307.39	647.14	38.068	370.04	799.69	92.678	438.55	843.71	118.51	329.3	886.94	158.39	383.76	294.23	704.49	98.789	350.7	592.35	109.47	282.14	615.38	113.78	357.1	680.96	91.244	293.98	510.95	122.82	297.55	503.72	246.05	172.99	349.74	131.65	226.79	252.66	134.22	165.63	272.64	141.28	234	328.43	123.82	176.8	106.67	162.93	182.93	117.69	254.28	99.771	77.879	207.04	105.03	51.736	239.98	103.27	51.212	178.38	286.65	42.351	139.61	317.65	43.939	256.59	375.42	51.613	207.14	351.39	1542.9	250.9	267.79	1286.5	230.83
385	1.6	531.37	1264.9	256.45	400.29	1497	424.56	410	1479.3	75.061	451.82	1819.7	238.05	501.93	983.62	385.01	491.02	997.07	136.43	288.15	1020.6	298.54	293.32	1028	217.51	421.34	906.33	456.86	363.66	921.39	78.828	415.08	1078.2	432.9	396.99	1080.9	95.675	268.54	983.14	255.83	503.08	657.48	452.57	602.83	608.71	417.83	536.37	573.83	437.38	570.48	713.32	437.66	585.47	523.32	427.96	572.09	508.04	299.3	595.77	290.36	426.36	692.12	245.21	396.98	624.29	226.37	413.64	660.1	308.28	417.6	685.18	121.73	400.28	710.16	147.36	314.34	647.07	67.959	336.26	671.76	47.11	307.13	660.89	38.103	369.79	812.36	95.669	438.44	856.03	122.32	329.22	898.42	163.08	383.71	298.08	704.27	99.072	354.03	591.83	109.64	285.6	615.21	113.98	360.86	680.43	91.425	296.83	510.69	122.93	300.49	503.37	246.17	174.85	350.21	131.74	228.05	252.78	134.28	167.02	273.15	141.36	235.71	328.51	123.88	177.11	106.99	163.03	183.25	118.09	254.43	99.945	78.326	207.16	105.16	52.167	240.1	103.38	51.658	178.49	286.71	42.32	139.66	317.77	43.845	256.59	375.55	51.327	207.14	357.01	1541.9	251.3	273.37	1285.6	231.09
386	1.6042	536.95	1263.8	256.82	405.8	1495.9	425	415.71	1478.4	75.485	457.3	1818.7	238.45	507.6	982.6	385.09	496.31	996.05	136.56	293.73	1019.6	299	298.79	1027.1	217.95	427.1	905.3	457.12	368.66	920.63	79.074	420.73	1077.2	433.17	402.36	1080	95.928	274.05	982.14	256.28	508.17	656.27	452.83	607.92	607.48	418.09	541.43	572.62	437.57	575.61	712.1	437.98	590.84	522.42	428.16	577.41	506.94	299.44	604.79	289.59	426.34	701.86	245.98	396.85	634.33	226.03	413.5	668.84	308.55	417.54	696.94	122.32	399.97	721.46	148.41	314.11	659.8	67.738	335.98	684.88	47.346	306.84	674.13	38.164	369.52	824.54	98.549	438.26	867.84	125.96	329.07	909.43	167.55	383.58	302	704.02	99.375	357.45	591.31	109.8	289.14	615.02	114.2	364.7	679.89	91.605	299.79	510.42	123.05	303.54	503	246.31	176.79	350.69	131.84	229.36	252.9	134.33	168.47	273.68	141.44	237.5	328.58	123.95	177.44	107.35	163.12	183.59	118.51	254.57	100.14	78.829	207.27	105.3	52.658	240.21	103.49	52.155	178.6	286.76	42.283	139.72	317.91	43.756	256.59	375.7	51.032	207.13	362.63	1540.9	251.71	278.95	1284.6	231.36
